<?xml version="1.0" encoding="UTF-8"?>
<svg xmlns="http://www.w3.org/2000/svg" viewBox="0 0 1200 630" width="1200" height="630">
  <defs>
    <linearGradient id="g94026" x1="93.7309853569698%" y1="25.75951898768314%" x2="6.269014643030211%" y2="74.24048101231686%">
      <stop offset="0%" stop-color="#0F766E"/>
      <stop offset="100%" stop-color="#115E59"/>
    </linearGradient>
  </defs>
  <rect width="1200" height="630" fill="url(#g94026)"/>
  <polygon points="151.99649955146015,250 271.99649955146015,190 391.99649955146015,250" fill="rgba(255,255,255,0.06)" stroke="rgba(255,255,255,0.12)" stroke-width="2"/><rect x="165.99649955146015" y="250" width="12" height="150" fill="rgba(255,255,255,0.08)"/><rect x="215.99649955146015" y="250" width="12" height="150" fill="rgba(255,255,255,0.08)"/><rect x="265.99649955146015" y="250" width="12" height="150" fill="rgba(255,255,255,0.08)"/><rect x="315.99649955146015" y="250" width="12" height="150" fill="rgba(255,255,255,0.08)"/><rect x="365.99649955146015" y="250" width="12" height="150" fill="rgba(255,255,255,0.08)"/><rect x="141.99649955146015" y="400" width="260" height="12" rx="2" fill="rgba(255,255,255,0.1)"/><path d="M 939.499637868721 182.00281266123056 L 984.499637868721 202.00281266123056 L 984.499637868721 242.00281266123056 C 984.499637868721 272.00281266123056 939.499637868721 292.00281266123056 939.499637868721 292.00281266123056 C 939.499637868721 292.00281266123056 894.499637868721 272.00281266123056 894.499637868721 242.00281266123056 L 894.499637868721 202.00281266123056 Z" fill="rgba(255,255,255,0.06)" stroke="rgba(255,255,255,0.15)" stroke-width="2"/><text x="950.9564473060891" y="147.71667049266398" font-family="sans-serif" font-size="33.71317450795323" fill="rgba(255,255,255,0.11043246599845588)">★</text><text x="879.8842893680558" y="85.43251752853394" font-family="sans-serif" font-size="17.71742349397391" fill="rgba(255,255,255,0.17175197531003505)">★</text><text x="688.9590457081795" y="90.75619637966156" font-family="sans-serif" font-size="21.989004452712834" fill="rgba(255,255,255,0.17336383794434368)">★</text><text x="1015.9916524076834" y="100.36826493218541" font-family="sans-serif" font-size="31.212936028838158" fill="rgba(255,255,255,0.15987840012647214)">★</text><text x="915.9239819506183" y="122.13400278240442" font-family="sans-serif" font-size="21.742152887396514" fill="rgba(255,255,255,0.17924549944698812)">★</text>
  <circle cx="254.3465405702591" cy="42.87940058391541" r="1.521272471640259" fill="rgba(255,255,255,0.05738835462369025)"/><circle cx="47.10001973435283" cy="131.7319179768674" r="1.2288098447024822" fill="rgba(255,255,255,0.07082673495868222)"/><circle cx="632.3787935078144" cy="345.43678721180186" r="2.623471333179623" fill="rgba(255,255,255,0.046369535401463505)"/><circle cx="337.7518471330404" cy="113.73453984037042" r="2.8863917156122625" fill="rgba(255,255,255,0.03705804774770513)"/><circle cx="620.2581181190908" cy="123.93382112961262" r="2.9289913247339427" fill="rgba(255,255,255,0.034372925928328184)"/><circle cx="386.533732060343" cy="376.55978782335296" r="1.538658622186631" fill="rgba(255,255,255,0.05735090558417141)"/><circle cx="229.53237360343337" cy="177.64236581046134" r="1.7728323000483215" fill="rgba(255,255,255,0.07159764056093991)"/><circle cx="176.10266748815775" cy="168.58966435538605" r="1.845214745029807" fill="rgba(255,255,255,0.06249928791774437)"/><circle cx="752.418964728713" cy="528.7142179487273" r="1.475306908134371" fill="rgba(255,255,255,0.07218324654502795)"/><circle cx="1150.8485938422382" cy="67.37373465439305" r="2.804878330323845" fill="rgba(255,255,255,0.07561743309022859)"/><circle cx="415.67854564636946" cy="509.4015612686053" r="1.200085119344294" fill="rgba(255,255,255,0.06718286781804636)"/><circle cx="842.8568855859339" cy="601.7327220970765" r="1.9537890288047493" fill="rgba(255,255,255,0.04139201261103153)"/><circle cx="585.6040614657104" cy="188.52234506048262" r="1.3365380326285958" fill="rgba(255,255,255,0.05464325223118067)"/><circle cx="690.8185500651598" cy="90.21733176894486" r="1.4066448286175728" fill="rgba(255,255,255,0.05420463195303455)"/><circle cx="662.8998474217951" cy="475.5305432458408" r="1.771765856537968" fill="rgba(255,255,255,0.03931720033986494)"/><circle cx="555.9013271704316" cy="500.23373879492283" r="2.8184812953695655" fill="rgba(255,255,255,0.07535387634532525)"/><circle cx="318.9766488969326" cy="621.9996670656838" r="2.883557259105146" fill="rgba(255,255,255,0.060251921073067934)"/><circle cx="22.897813841700554" cy="482.90259432513267" r="1.8792245010845363" fill="rgba(255,255,255,0.07808404679642991)"/><circle cx="60.60770004987717" cy="43.89976530103013" r="1.310950965154916" fill="rgba(255,255,255,0.051511704032309355)"/><circle cx="711.7199233733118" cy="483.7651273654774" r="2.1347629646770656" fill="rgba(255,255,255,0.03172313529765233)"/>
  <text x="600" y="335" font-family="system-ui, -apple-system, 'Segoe UI', sans-serif" font-size="50" font-weight="700" fill="rgba(0,0,0,0.15)" text-anchor="middle" letter-spacing="1">National Civil Service Exam China</text>
  <text x="600" y="332" font-family="system-ui, -apple-system, 'Segoe UI', sans-serif" font-size="50" font-weight="700" fill="white" text-anchor="middle" letter-spacing="1">National Civil Service Exam China</text>
  <g transform="translate(1140, 575)">
    <rect x="0" y="0" width="40" height="40" rx="8" fill="rgba(255,255,255,0.15)"/>
    <text x="20" y="29" font-family="sans-serif" font-weight="bold" font-size="24" fill="rgba(255,255,255,0.6)" text-anchor="middle">K</text>
  </g>
</svg>